<mxfile host="65bd71144e">
    <diagram id="CUJUMXQ0X0TxbI-3v0MW" name="Luas &amp; Keliling Lingkaran">
        <mxGraphModel dx="674" dy="1444" grid="1" gridSize="10" guides="1" tooltips="1" connect="1" arrows="1" fold="1" page="1" pageScale="1" pageWidth="850" pageHeight="1100" math="0" shadow="0">
            <root>
                <mxCell id="0"/>
                <mxCell id="1" parent="0"/>
                <mxCell id="2" value="&lt;h1&gt;Pseudocode Algoritma Menghitung Luas Lingkaran&lt;/h1&gt;&lt;p&gt;DECLARATION&lt;/p&gt;&lt;p&gt;&lt;span style=&quot;white-space: pre;&quot;&gt;&#9;&lt;/span&gt;r, luas, keliling : num;&lt;br&gt;&lt;/p&gt;&lt;p&gt;BEGIN&lt;/p&gt;&lt;p&gt;&lt;span style=&quot;white-space: pre;&quot;&gt;&#9;&lt;/span&gt;Input r;&lt;br&gt;&lt;/p&gt;&lt;p&gt;&lt;span style=&quot;white-space: pre;&quot;&gt;&#9;&lt;/span&gt;If r % 7 == 0&lt;/p&gt;&lt;p&gt;&lt;span style=&quot;white-space: pre;&quot;&gt;&#9;&lt;/span&gt;&lt;span style=&quot;white-space: pre;&quot;&gt;&#9;&lt;/span&gt;luas&amp;nbsp;= r * r * 22 / 7;&lt;br&gt;&lt;/p&gt;&lt;p&gt;&lt;span style=&quot;white-space: pre;&quot;&gt;&#9;&lt;/span&gt;&lt;span style=&quot;white-space: pre;&quot;&gt;&#9;&lt;/span&gt;keliling = 2 * r * 22 / 7;&lt;br&gt;&lt;/p&gt;&lt;p&gt;&lt;span style=&quot;white-space: pre;&quot;&gt;&#9;&lt;/span&gt;Else&amp;nbsp;&lt;/p&gt;&lt;p&gt;&lt;span style=&quot;white-space: pre;&quot;&gt;&#9;&lt;/span&gt;&lt;span style=&quot;white-space: pre;&quot;&gt;&#9;&lt;/span&gt;luas&amp;nbsp;= r * r * 3.14;&lt;br&gt;&lt;/p&gt;&lt;p&gt;&lt;span style=&quot;white-space: pre;&quot;&gt;&#9;&lt;/span&gt;&lt;span style=&quot;white-space: pre;&quot;&gt;&#9;&lt;/span&gt;keliling = 2 * r * 3.14;&lt;br&gt;&lt;/p&gt;&lt;p&gt;&lt;span style=&quot;white-space: pre;&quot;&gt;&#9;&lt;/span&gt;Output luas;&lt;br&gt;&lt;/p&gt;&lt;p&gt;&lt;span style=&quot;white-space: pre;&quot;&gt;&#9;&lt;/span&gt;Output keliling&lt;br&gt;&lt;/p&gt;&lt;p&gt;END&lt;/p&gt;" style="text;html=1;strokeColor=none;fillColor=none;spacing=5;spacingTop=-20;whiteSpace=wrap;overflow=hidden;rounded=0;" parent="1" vertex="1">
                    <mxGeometry x="20" width="310" height="440" as="geometry"/>
                </mxCell>
                <mxCell id="4" value="&lt;h1&gt;Flow Chart Algortima Menghitung Luas Lingkaran&lt;/h1&gt;" style="text;html=1;strokeColor=none;fillColor=none;spacing=5;spacingTop=-20;whiteSpace=wrap;overflow=hidden;rounded=0;" parent="1" vertex="1">
                    <mxGeometry x="360" width="280" height="120" as="geometry"/>
                </mxCell>
                <mxCell id="7" value="" style="edgeStyle=none;html=1;" parent="1" source="5" target="6" edge="1">
                    <mxGeometry relative="1" as="geometry"/>
                </mxCell>
                <mxCell id="5" value="Mulai" style="ellipse;whiteSpace=wrap;html=1;" parent="1" vertex="1">
                    <mxGeometry x="361" y="130" width="120" height="40" as="geometry"/>
                </mxCell>
                <mxCell id="16" value="" style="edgeStyle=none;html=1;entryX=0.5;entryY=0;entryDx=0;entryDy=0;" parent="1" source="6" target="82" edge="1">
                    <mxGeometry relative="1" as="geometry">
                        <mxPoint x="421" y="260" as="targetPoint"/>
                    </mxGeometry>
                </mxCell>
                <mxCell id="6" value="INPUT r" style="shape=parallelogram;perimeter=parallelogramPerimeter;whiteSpace=wrap;html=1;fixedSize=1;" parent="1" vertex="1">
                    <mxGeometry x="361" y="190" width="120" height="40" as="geometry"/>
                </mxCell>
                <mxCell id="15" value="r % 7 == 0" style="rhombus;whiteSpace=wrap;html=1;" parent="1" vertex="1">
                    <mxGeometry x="360" y="332" width="120" height="60" as="geometry"/>
                </mxCell>
                <mxCell id="21" value="" style="edgeStyle=none;html=1;entryX=0.5;entryY=0;entryDx=0;entryDy=0;" parent="1" source="18" target="105" edge="1">
                    <mxGeometry relative="1" as="geometry">
                        <mxPoint x="420" y="510" as="targetPoint"/>
                    </mxGeometry>
                </mxCell>
                <mxCell id="18" value="luas = r * r * 22 / 7" style="whiteSpace=wrap;html=1;" parent="1" vertex="1">
                    <mxGeometry x="361" y="432" width="120" height="50" as="geometry"/>
                </mxCell>
                <mxCell id="23" value="" style="edgeStyle=none;html=1;entryX=0.5;entryY=0;entryDx=0;entryDy=0;" parent="1" source="20" target="110" edge="1">
                    <mxGeometry relative="1" as="geometry">
                        <mxPoint x="421" y="653" as="targetPoint"/>
                    </mxGeometry>
                </mxCell>
                <mxCell id="20" value="OUTPUT luas" style="shape=parallelogram;perimeter=parallelogramPerimeter;whiteSpace=wrap;html=1;fixedSize=1;" parent="1" vertex="1">
                    <mxGeometry x="361" y="593" width="120" height="50" as="geometry"/>
                </mxCell>
                <mxCell id="24" value="Selesai" style="ellipse;whiteSpace=wrap;html=1;" parent="1" vertex="1">
                    <mxGeometry x="361" y="750" width="120" height="40" as="geometry"/>
                </mxCell>
                <mxCell id="49" value="" style="endArrow=classic;html=1;exitX=0.5;exitY=1;exitDx=0;exitDy=0;entryX=0.5;entryY=0;entryDx=0;entryDy=0;" parent="1" source="15" target="18" edge="1">
                    <mxGeometry relative="1" as="geometry">
                        <mxPoint x="501" y="422" as="sourcePoint"/>
                        <mxPoint x="601" y="422" as="targetPoint"/>
                        <Array as="points"/>
                    </mxGeometry>
                </mxCell>
                <mxCell id="50" value="Ya" style="edgeLabel;resizable=0;html=1;align=center;verticalAlign=middle;" parent="49" connectable="0" vertex="1">
                    <mxGeometry relative="1" as="geometry">
                        <mxPoint y="-4" as="offset"/>
                    </mxGeometry>
                </mxCell>
                <mxCell id="51" value="" style="endArrow=classic;html=1;exitX=1;exitY=0.5;exitDx=0;exitDy=0;entryX=0;entryY=0.5;entryDx=0;entryDy=0;" parent="1" source="15" target="64" edge="1">
                    <mxGeometry relative="1" as="geometry">
                        <mxPoint x="521" y="361.5" as="sourcePoint"/>
                        <mxPoint x="551" y="362" as="targetPoint"/>
                    </mxGeometry>
                </mxCell>
                <mxCell id="52" value="Tidak" style="edgeLabel;resizable=0;html=1;align=center;verticalAlign=middle;" parent="51" connectable="0" vertex="1">
                    <mxGeometry relative="1" as="geometry"/>
                </mxCell>
                <mxCell id="65" style="edgeStyle=orthogonalEdgeStyle;html=1;exitX=0.5;exitY=1;exitDx=0;exitDy=0;startArrow=none;entryX=1;entryY=0.5;entryDx=0;entryDy=0;" parent="1" source="107" target="20" edge="1">
                    <mxGeometry relative="1" as="geometry">
                        <Array as="points">
                            <mxPoint x="631" y="618"/>
                        </Array>
                        <mxPoint x="590" y="580" as="targetPoint"/>
                    </mxGeometry>
                </mxCell>
                <mxCell id="109" style="edgeStyle=none;html=1;exitX=0.5;exitY=1;exitDx=0;exitDy=0;entryX=0.5;entryY=0;entryDx=0;entryDy=0;" parent="1" source="64" target="107" edge="1">
                    <mxGeometry relative="1" as="geometry"/>
                </mxCell>
                <mxCell id="64" value="luas = r * r * 3.14" style="whiteSpace=wrap;html=1;" parent="1" vertex="1">
                    <mxGeometry x="571" y="337" width="120" height="50" as="geometry"/>
                </mxCell>
                <mxCell id="82" value="luas, keliling" style="shape=process;whiteSpace=wrap;html=1;backgroundOutline=1;" parent="1" vertex="1">
                    <mxGeometry x="361" y="250" width="120" height="60" as="geometry"/>
                </mxCell>
                <mxCell id="83" value="" style="endArrow=classic;html=1;exitX=0.5;exitY=1;exitDx=0;exitDy=0;entryX=0.5;entryY=0;entryDx=0;entryDy=0;" parent="1" source="82" target="15" edge="1">
                    <mxGeometry width="50" height="50" relative="1" as="geometry">
                        <mxPoint x="411" y="450" as="sourcePoint"/>
                        <mxPoint x="461" y="400" as="targetPoint"/>
                    </mxGeometry>
                </mxCell>
                <mxCell id="106" style="edgeStyle=none;html=1;exitX=0.5;exitY=1;exitDx=0;exitDy=0;entryX=0.5;entryY=0;entryDx=0;entryDy=0;" parent="1" source="105" target="20" edge="1">
                    <mxGeometry relative="1" as="geometry"/>
                </mxCell>
                <mxCell id="105" value="keliling = 2 * r * 22 / 7" style="whiteSpace=wrap;html=1;" parent="1" vertex="1">
                    <mxGeometry x="361" y="510" width="120" height="50" as="geometry"/>
                </mxCell>
                <mxCell id="107" value="keliling = 2 * r * 3.14" style="whiteSpace=wrap;html=1;" parent="1" vertex="1">
                    <mxGeometry x="571" y="420" width="120" height="50" as="geometry"/>
                </mxCell>
                <mxCell id="111" style="edgeStyle=none;html=1;exitX=0.5;exitY=1;exitDx=0;exitDy=0;" parent="1" source="110" target="24" edge="1">
                    <mxGeometry relative="1" as="geometry"/>
                </mxCell>
                <mxCell id="110" value="OUTPUT keliling" style="shape=parallelogram;perimeter=parallelogramPerimeter;whiteSpace=wrap;html=1;fixedSize=1;" parent="1" vertex="1">
                    <mxGeometry x="361" y="670" width="120" height="50" as="geometry"/>
                </mxCell>
            </root>
        </mxGraphModel>
    </diagram>
    <diagram id="GCGuCBROc1ggfjhuPVGe" name="Luas Permukaan Dadu 6 Sisi">
        <mxGraphModel dx="674" dy="344" grid="1" gridSize="10" guides="1" tooltips="1" connect="1" arrows="1" fold="1" page="1" pageScale="1" pageWidth="850" pageHeight="1100" math="0" shadow="0">
            <root>
                <mxCell id="0"/>
                <mxCell id="1" parent="0"/>
                <mxCell id="JqkzpEmQRBnh11CE17rS-1" value="&lt;h1&gt;Pseudocode Algoritma Luas Permukaan Dadu 6 Sisi&lt;/h1&gt;&lt;p&gt;DECLARATION&lt;/p&gt;&lt;p&gt;&lt;span style=&quot;white-space: pre;&quot;&gt;&#9;&lt;/span&gt;sisi, luas : num;&lt;br&gt;&lt;/p&gt;&lt;p&gt;BEGIN&lt;/p&gt;&lt;p&gt;&lt;span style=&quot;white-space: pre;&quot;&gt;&#9;&lt;/span&gt;Input sisi;&lt;br&gt;&lt;/p&gt;&lt;p&gt;&lt;span style=&quot;white-space: pre;&quot;&gt;&#9;&lt;/span&gt;luas = 6 * sisi * sisi&lt;br&gt;&lt;/p&gt;&lt;p&gt;&lt;span style=&quot;white-space: pre;&quot;&gt;&#9;&lt;/span&gt;Output luas;&lt;br&gt;&lt;/p&gt;&lt;p&gt;END&lt;/p&gt;" style="text;html=1;strokeColor=none;fillColor=none;spacing=5;spacingTop=-20;whiteSpace=wrap;overflow=hidden;rounded=0;" parent="1" vertex="1">
                    <mxGeometry x="20" y="20" width="190" height="310" as="geometry"/>
                </mxCell>
                <mxCell id="JqkzpEmQRBnh11CE17rS-2" value="&lt;h1&gt;Flow Chart Algoritma Luas Permukaan Dadu 6 Sisi&lt;/h1&gt;" style="text;html=1;strokeColor=none;fillColor=none;spacing=5;spacingTop=-20;whiteSpace=wrap;overflow=hidden;rounded=0;" parent="1" vertex="1">
                    <mxGeometry x="260" y="20" width="190" height="120" as="geometry"/>
                </mxCell>
                <mxCell id="JqkzpEmQRBnh11CE17rS-5" value="" style="edgeStyle=orthogonalEdgeStyle;html=1;" parent="1" source="JqkzpEmQRBnh11CE17rS-3" target="JqkzpEmQRBnh11CE17rS-4" edge="1">
                    <mxGeometry relative="1" as="geometry"/>
                </mxCell>
                <mxCell id="JqkzpEmQRBnh11CE17rS-3" value="Mulai" style="ellipse;whiteSpace=wrap;html=1;" parent="1" vertex="1">
                    <mxGeometry x="280" y="160" width="120" height="40" as="geometry"/>
                </mxCell>
                <mxCell id="JqkzpEmQRBnh11CE17rS-7" value="" style="edgeStyle=orthogonalEdgeStyle;html=1;startArrow=none;" parent="1" source="aLYWOsO8eAfi2g8qhkjH-1" target="JqkzpEmQRBnh11CE17rS-6" edge="1">
                    <mxGeometry relative="1" as="geometry"/>
                </mxCell>
                <mxCell id="aLYWOsO8eAfi2g8qhkjH-3" style="edgeStyle=none;html=1;exitX=0.5;exitY=1;exitDx=0;exitDy=0;entryX=0.5;entryY=0;entryDx=0;entryDy=0;" parent="1" source="JqkzpEmQRBnh11CE17rS-4" target="aLYWOsO8eAfi2g8qhkjH-1" edge="1">
                    <mxGeometry relative="1" as="geometry"/>
                </mxCell>
                <mxCell id="JqkzpEmQRBnh11CE17rS-4" value="INPUT sisi" style="shape=parallelogram;perimeter=parallelogramPerimeter;whiteSpace=wrap;html=1;fixedSize=1;" parent="1" vertex="1">
                    <mxGeometry x="280" y="220" width="120" height="40" as="geometry"/>
                </mxCell>
                <mxCell id="JqkzpEmQRBnh11CE17rS-9" value="" style="edgeStyle=orthogonalEdgeStyle;html=1;" parent="1" source="JqkzpEmQRBnh11CE17rS-6" target="JqkzpEmQRBnh11CE17rS-8" edge="1">
                    <mxGeometry relative="1" as="geometry"/>
                </mxCell>
                <mxCell id="JqkzpEmQRBnh11CE17rS-6" value="luas = 6 * sisi * sisi" style="whiteSpace=wrap;html=1;" parent="1" vertex="1">
                    <mxGeometry x="280" y="343" width="120" height="40" as="geometry"/>
                </mxCell>
                <mxCell id="JqkzpEmQRBnh11CE17rS-11" value="" style="edgeStyle=orthogonalEdgeStyle;html=1;" parent="1" source="JqkzpEmQRBnh11CE17rS-8" target="JqkzpEmQRBnh11CE17rS-10" edge="1">
                    <mxGeometry relative="1" as="geometry"/>
                </mxCell>
                <mxCell id="JqkzpEmQRBnh11CE17rS-8" value="OUTPUT luas" style="shape=parallelogram;perimeter=parallelogramPerimeter;whiteSpace=wrap;html=1;fixedSize=1;" parent="1" vertex="1">
                    <mxGeometry x="280" y="403" width="120" height="40" as="geometry"/>
                </mxCell>
                <mxCell id="JqkzpEmQRBnh11CE17rS-10" value="Selesai" style="ellipse;whiteSpace=wrap;html=1;" parent="1" vertex="1">
                    <mxGeometry x="280" y="463" width="120" height="40" as="geometry"/>
                </mxCell>
                <mxCell id="aLYWOsO8eAfi2g8qhkjH-1" value="luas" style="shape=process;whiteSpace=wrap;html=1;backgroundOutline=1;" parent="1" vertex="1">
                    <mxGeometry x="280" y="280" width="120" height="40" as="geometry"/>
                </mxCell>
            </root>
        </mxGraphModel>
    </diagram>
</mxfile>